<svg xmlns="http://www.w3.org/2000/svg" width="3053.978" height="1079.245" viewBox="0 0 3053.978 1079.245">
  <g id="stars" transform="translate(134.879 160.417)" opacity="0.4">
    <circle id="Ellipse_2" data-name="Ellipse 2" cx="0.472" cy="0.472" r="0.472" transform="translate(1386.656 692.007)" fill="#fff"/>
    <circle id="Ellipse_3" data-name="Ellipse 3" cx="1.574" cy="1.574" r="1.574" transform="translate(1358.455 319.529)" fill="#fff"/>
    <circle id="Ellipse_4" data-name="Ellipse 4" cx="0.823" cy="0.823" r="0.823" transform="translate(1006.55 -54.225)" fill="#fff"/>
    <circle id="Ellipse_5" data-name="Ellipse 5" cx="1.83" cy="1.83" r="1.83" transform="translate(1765.895 115.038)" fill="#fff"/>
    <circle id="Ellipse_6" data-name="Ellipse 6" cx="0.39" cy="0.39" r="0.39" transform="translate(1560.188 312)" fill="#fff"/>
    <circle id="Ellipse_7" data-name="Ellipse 7" cx="0.61" cy="0.61" r="0.61" transform="translate(1250.176 289.602)" fill="#fff"/>
    <circle id="Ellipse_8" data-name="Ellipse 8" cx="0.565" cy="0.565" r="0.565" transform="translate(1385.49 522.416)" fill="#fff"/>
    <circle id="Ellipse_9" data-name="Ellipse 9" cx="0.574" cy="0.574" r="0.574" transform="translate(1644.351 285.313)" fill="#fff"/>
    <circle id="Ellipse_10" data-name="Ellipse 10" cx="0.388" cy="0.388" r="0.388" transform="translate(1453.346 442.555)" fill="#fff"/>
    <circle id="Ellipse_11" data-name="Ellipse 11" cx="1.331" cy="1.331" r="1.331" transform="translate(1310.274 55.848)" fill="#fff"/>
    <circle id="Ellipse_12" data-name="Ellipse 12" cx="0.233" cy="0.233" r="0.233" transform="translate(1161.695 391.27)" fill="#fff"/>
    <circle id="Ellipse_13" data-name="Ellipse 13" cx="0.946" cy="0.946" r="0.946" transform="translate(1169.245 -12.487)" fill="#fff"/>
    <circle id="Ellipse_14" data-name="Ellipse 14" cx="1.578" cy="1.578" r="1.578" transform="translate(1334.254 503.302)" fill="#fff"/>
    <circle id="Ellipse_15" data-name="Ellipse 15" cx="1.521" cy="1.521" r="1.521" transform="translate(1611.385 -9.399)" fill="#fff"/>
    <circle id="Ellipse_16" data-name="Ellipse 16" cx="1.383" cy="1.383" r="1.383" transform="translate(1828.892 482.316)" fill="#fff"/>
    <circle id="Ellipse_17" data-name="Ellipse 17" cx="0.785" cy="0.785" r="0.785" transform="translate(1408.955 68.126)" fill="#fff"/>
    <circle id="Ellipse_18" data-name="Ellipse 18" cx="0.658" cy="0.658" r="0.658" transform="translate(1323.635 602.379)" fill="#fff"/>
    <circle id="Ellipse_19" data-name="Ellipse 19" cx="1.678" cy="1.678" r="1.678" transform="translate(1635.628 417.635)" fill="#fff"/>
    <circle id="Ellipse_20" data-name="Ellipse 20" cx="1.444" cy="1.444" r="1.444" transform="translate(1570.876 324.467)" fill="#fff"/>
    <circle id="Ellipse_21" data-name="Ellipse 21" cx="1.857" cy="1.857" r="1.857" transform="translate(1298.273 254.913)" fill="#fff"/>
    <circle id="Ellipse_22" data-name="Ellipse 22" cx="0.515" cy="0.515" r="0.515" transform="translate(1413.515 158.118)" fill="#fff"/>
    <circle id="Ellipse_23" data-name="Ellipse 23" cx="1.811" cy="1.811" r="1.811" transform="translate(1612.125 449.674)" fill="#fff"/>
    <circle id="Ellipse_24" data-name="Ellipse 24" cx="0.268" cy="0.268" r="0.268" transform="translate(1535.618 313.215)" fill="#fff"/>
    <circle id="Ellipse_25" data-name="Ellipse 25" cx="1.648" cy="1.648" r="1.648" transform="translate(1280.913 219.341)" fill="#fff"/>
    <circle id="Ellipse_26" data-name="Ellipse 26" cx="1.088" cy="1.088" r="1.088" transform="translate(1929.619 264.235)" fill="#fff"/>
    <circle id="Ellipse_27" data-name="Ellipse 27" cx="0.496" cy="0.496" r="0.496" transform="translate(1715.438 243.169)" fill="#fff"/>
    <circle id="Ellipse_28" data-name="Ellipse 28" cx="0.49" cy="0.49" r="0.49" transform="translate(1468.788 593.584)" fill="#fff"/>
    <circle id="Ellipse_29" data-name="Ellipse 29" cx="0.865" cy="0.865" r="0.865" transform="translate(1941.397 604.298)" fill="#fff"/>
    <circle id="Ellipse_30" data-name="Ellipse 30" cx="0.852" cy="0.852" r="0.852" transform="translate(1361.11 579.917)" fill="#fff"/>
    <circle id="Ellipse_31" data-name="Ellipse 31" cx="0.728" cy="0.728" r="0.728" transform="translate(1941.006 584.183)" fill="#fff"/>
    <circle id="Ellipse_32" data-name="Ellipse 32" cx="0.544" cy="0.544" r="0.544" transform="translate(1446.34 581.323)" fill="#fff"/>
    <circle id="Ellipse_33" data-name="Ellipse 33" cx="0.795" cy="0.795" r="0.795" transform="translate(1445.185 172.842)" fill="#fff"/>
    <circle id="Ellipse_34" data-name="Ellipse 34" cx="0.417" cy="0.417" r="0.417" transform="translate(1910.33 139.589)" fill="#fff"/>
    <circle id="Ellipse_35" data-name="Ellipse 35" cx="0.409" cy="0.409" r="0.409" transform="translate(1132.112 570.719)" fill="#fff"/>
    <circle id="Ellipse_36" data-name="Ellipse 36" cx="0.635" cy="0.635" r="0.635" transform="translate(1919.82 377.981)" fill="#fff"/>
    <circle id="Ellipse_37" data-name="Ellipse 37" cx="0.406" cy="0.406" r="0.406" transform="translate(1449.22 595.123)" fill="#fff"/>
    <circle id="Ellipse_38" data-name="Ellipse 38" cx="1.532" cy="1.532" r="1.532" transform="translate(1524.498 408.557)" fill="#fff"/>
    <circle id="Ellipse_39" data-name="Ellipse 39" cx="0.649" cy="0.649" r="0.649" transform="translate(1461.895 674.154)" fill="#fff"/>
    <circle id="Ellipse_40" data-name="Ellipse 40" cx="0.657" cy="0.657" r="0.657" transform="translate(1587.548 539.708)" fill="#fff"/>
    <circle id="Ellipse_41" data-name="Ellipse 41" cx="0.737" cy="0.737" r="0.737" transform="translate(1874.271 762.304)" fill="#fff"/>
    <circle id="Ellipse_42" data-name="Ellipse 42" cx="0.681" cy="0.681" r="0.681" transform="translate(2114.651 482.239)" fill="#fff"/>
    <circle id="Ellipse_43" data-name="Ellipse 43" cx="0.85" cy="0.85" r="0.85" transform="translate(1753.541 -53.967)" fill="#fff"/>
    <circle id="Ellipse_44" data-name="Ellipse 44" cx="0.431" cy="0.431" r="0.431" transform="translate(1874.863 182.428)" fill="#fff"/>
    <circle id="Ellipse_45" data-name="Ellipse 45" cx="0.545" cy="0.545" r="0.545" transform="translate(1411.824 498.19)" fill="#fff"/>
    <circle id="Ellipse_46" data-name="Ellipse 46" cx="0.811" cy="0.811" r="0.811" transform="translate(1875.635 325.747)" fill="#fff"/>
    <circle id="Ellipse_47" data-name="Ellipse 47" cx="0.87" cy="0.87" r="0.87" transform="translate(2011.036 -33.403)" fill="#fff"/>
    <circle id="Ellipse_48" data-name="Ellipse 48" cx="0.342" cy="0.342" r="0.342" transform="translate(1785.051 -3.396)" fill="#fff"/>
    <circle id="Ellipse_49" data-name="Ellipse 49" cx="0.47" cy="0.47" r="0.47" transform="translate(1778.073 343.169)" fill="#fff"/>
    <circle id="Ellipse_50" data-name="Ellipse 50" cx="1.835" cy="1.835" r="1.835" transform="translate(1752.361 128.619)" fill="#fff"/>
    <circle id="Ellipse_51" data-name="Ellipse 51" cx="0.811" cy="0.811" r="0.811" transform="translate(1640.392 601.6)" fill="#fff"/>
    <circle id="Ellipse_52" data-name="Ellipse 52" cx="1.087" cy="1.087" r="1.087" transform="translate(1752.701 633.856)" fill="#fff"/>
    <circle id="Ellipse_53" data-name="Ellipse 53" cx="0.679" cy="0.679" r="0.679" transform="translate(2197.037 366.349)" fill="#fff"/>
    <circle id="Ellipse_54" data-name="Ellipse 54" cx="0.402" cy="0.402" r="0.402" transform="translate(1990.599 -41.333)" fill="#fff"/>
    <circle id="Ellipse_55" data-name="Ellipse 55" cx="0.348" cy="0.348" r="0.348" transform="translate(2062.805 424.349)" fill="#fff"/>
    <circle id="Ellipse_56" data-name="Ellipse 56" cx="0.891" cy="0.891" r="0.891" transform="translate(2071.673 697.486)" fill="#fff"/>
    <circle id="Ellipse_57" data-name="Ellipse 57" cx="0.804" cy="0.804" r="0.804" transform="translate(1680.766 628.861)" fill="#fff"/>
    <circle id="Ellipse_58" data-name="Ellipse 58" cx="0.765" cy="0.765" r="0.765" transform="translate(2065.146 390.316)" fill="#fff"/>
    <circle id="Ellipse_59" data-name="Ellipse 59" cx="0.656" cy="0.656" r="0.656" transform="translate(1406.863 173.911)" fill="#fff"/>
    <circle id="Ellipse_60" data-name="Ellipse 60" cx="1.447" cy="1.447" r="1.447" transform="translate(1877.554 282.354)" fill="#fff"/>
    <circle id="Ellipse_61" data-name="Ellipse 61" cx="0.922" cy="0.922" r="0.922" transform="translate(1440.937 57.366)" fill="#fff"/>
    <circle id="Ellipse_62" data-name="Ellipse 62" cx="0.366" cy="0.366" r="0.366" transform="translate(999.825 301.101)" fill="#fff"/>
    <circle id="Ellipse_63" data-name="Ellipse 63" cx="0.438" cy="0.438" r="0.438" transform="translate(1343.915 480.051)" fill="#fff"/>
    <circle id="Ellipse_64" data-name="Ellipse 64" cx="1.787" cy="1.787" r="1.787" transform="translate(1293.704 82.719)" fill="#fff"/>
    <circle id="Ellipse_65" data-name="Ellipse 65" cx="0.307" cy="0.307" r="0.307" transform="translate(1214.483 406.543)" fill="#fff"/>
    <circle id="Ellipse_66" data-name="Ellipse 66" cx="1.868" cy="1.868" r="1.868" transform="translate(774.387 419.876)" fill="#fff"/>
    <circle id="Ellipse_67" data-name="Ellipse 67" cx="0.793" cy="0.793" r="0.793" transform="translate(1301.236 -23.82)" fill="#fff"/>
    <circle id="Ellipse_68" data-name="Ellipse 68" cx="1.063" cy="1.063" r="1.063" transform="translate(802.042 579.68)" fill="#fff"/>
    <circle id="Ellipse_69" data-name="Ellipse 69" cx="1.693" cy="1.693" r="1.693" transform="translate(957.732 627.123)" fill="#fff"/>
    <circle id="Ellipse_70" data-name="Ellipse 70" cx="1.116" cy="1.116" r="1.116" transform="translate(1085.535 524.688)" fill="#fff"/>
    <circle id="Ellipse_71" data-name="Ellipse 71" cx="0.369" cy="0.369" r="0.369" transform="translate(1148.282 241.563)" fill="#fff"/>
    <circle id="Ellipse_72" data-name="Ellipse 72" cx="0.972" cy="0.972" r="0.972" transform="translate(711.801 420.161)" fill="#fff"/>
    <circle id="Ellipse_73" data-name="Ellipse 73" cx="0.917" cy="0.917" r="0.917" transform="translate(725.957 233.834)" fill="#fff"/>
    <circle id="Ellipse_74" data-name="Ellipse 74" cx="0.534" cy="0.534" r="0.534" transform="translate(1571.885 491.708)" fill="#fff"/>
    <circle id="Ellipse_75" data-name="Ellipse 75" cx="0.714" cy="0.714" r="0.714" transform="translate(1009.986 -7.083)" fill="#fff"/>
    <circle id="Ellipse_76" data-name="Ellipse 76" cx="0.869" cy="0.869" r="0.869" transform="translate(711.294 652.327)" fill="#fff"/>
    <circle id="Ellipse_77" data-name="Ellipse 77" cx="0.186" cy="0.186" r="0.186" transform="translate(1188.67 514.308)" fill="#fff"/>
    <circle id="Ellipse_78" data-name="Ellipse 78" cx="1.665" cy="1.665" r="1.665" transform="translate(1403.341 481.913)" fill="#fff"/>
    <circle id="Ellipse_79" data-name="Ellipse 79" cx="0.567" cy="0.567" r="0.567" transform="translate(1000.915 854.616)" fill="#fff"/>
    <circle id="Ellipse_80" data-name="Ellipse 80" cx="0.814" cy="0.814" r="0.814" transform="translate(1423.269 256.095)" fill="#fff"/>
    <circle id="Ellipse_81" data-name="Ellipse 81" cx="1.863" cy="1.863" r="1.863" transform="translate(1347.087 -48.95)" fill="#fff"/>
    <circle id="Ellipse_82" data-name="Ellipse 82" cx="1.036" cy="1.036" r="1.036" transform="translate(1046.597 96.365)" fill="#fff"/>
    <circle id="Ellipse_83" data-name="Ellipse 83" cx="0.484" cy="0.484" r="0.484" transform="translate(1564.496 60.263)" fill="#fff"/>
    <circle id="Ellipse_84" data-name="Ellipse 84" cx="1.012" cy="1.012" r="1.012" transform="translate(967.217 431.611)" fill="#fff"/>
    <circle id="Ellipse_85" data-name="Ellipse 85" cx="1.401" cy="1.401" r="1.401" transform="translate(1647.242 423.036)" fill="#fff"/>
    <circle id="Ellipse_86" data-name="Ellipse 86" cx="1.659" cy="1.659" r="1.659" transform="translate(825.139 415.398)" fill="#fff"/>
    <circle id="Ellipse_87" data-name="Ellipse 87" cx="0.557" cy="0.557" r="0.557" transform="translate(960.101 302.187)" fill="#fff"/>
    <circle id="Ellipse_88" data-name="Ellipse 88" cx="1.535" cy="1.535" r="1.535" transform="translate(804.639 791.113)" fill="#fff"/>
    <circle id="Ellipse_89" data-name="Ellipse 89" cx="0.866" cy="0.866" r="0.866" transform="translate(898.26 355.236)" fill="#fff"/>
    <circle id="Ellipse_90" data-name="Ellipse 90" cx="2.233" cy="2.233" r="2.233" transform="translate(1119.045 821.663)" fill="#fff"/>
    <circle id="Ellipse_91" data-name="Ellipse 91" cx="1.519" cy="1.519" r="1.519" transform="translate(1220.044 453.03)" fill="#fff"/>
    <circle id="Ellipse_92" data-name="Ellipse 92" cx="0.866" cy="0.866" r="0.866" transform="translate(1425.649 111.546)" fill="#fff"/>
    <circle id="Ellipse_93" data-name="Ellipse 93" cx="0.313" cy="0.313" r="0.313" transform="translate(760.03 465.141)" fill="#fff"/>
    <circle id="Ellipse_94" data-name="Ellipse 94" cx="0.534" cy="0.534" r="0.534" transform="translate(1492.744 877.778)" fill="#fff"/>
    <circle id="Ellipse_95" data-name="Ellipse 95" cx="1.066" cy="1.066" r="1.066" transform="translate(1547.691 760.516)" fill="#fff"/>
    <circle id="Ellipse_96" data-name="Ellipse 96" cx="0.961" cy="0.961" r="0.961" transform="translate(1380.74 447.045)" fill="#fff"/>
    <circle id="Ellipse_97" data-name="Ellipse 97" cx="1.311" cy="1.311" r="1.311" transform="translate(1116.026 230.44)" fill="#fff"/>
    <circle id="Ellipse_98" data-name="Ellipse 98" cx="1.016" cy="1.016" r="1.016" transform="translate(1269.94 375.34)" fill="#fff"/>
    <circle id="Ellipse_99" data-name="Ellipse 99" cx="0.817" cy="0.817" r="0.817" transform="translate(1088.971 338.27)" fill="#fff"/>
    <circle id="Ellipse_100" data-name="Ellipse 100" cx="1.695" cy="1.695" r="1.695" transform="translate(966.711 252.045)" fill="#fff"/>
    <circle id="Ellipse_101" data-name="Ellipse 101" cx="0.566" cy="0.566" r="0.566" transform="translate(1010.59 305.342)" fill="#fff"/>
    <circle id="Ellipse_102" data-name="Ellipse 102" cx="1.688" cy="1.688" r="1.688" transform="translate(971.152 182.522)" fill="#fff"/>
    <circle id="Ellipse_103" data-name="Ellipse 103" cx="1.6" cy="1.6" r="1.6" transform="translate(1333.909 319.762)" fill="#fff"/>
    <circle id="Ellipse_104" data-name="Ellipse 104" cx="0.564" cy="0.564" r="0.564" transform="translate(1662.484 100.644)" fill="#fff"/>
    <circle id="Ellipse_105" data-name="Ellipse 105" cx="0.291" cy="0.291" r="0.291" transform="translate(1504.797 276.256)" fill="#fff"/>
    <circle id="Ellipse_106" data-name="Ellipse 106" cx="0.536" cy="0.536" r="0.536" transform="translate(1420.727 408.555)" fill="#fff"/>
    <circle id="Ellipse_107" data-name="Ellipse 107" cx="1.552" cy="1.552" r="1.552" transform="translate(1264.196 363.033)" fill="#fff"/>
    <circle id="Ellipse_108" data-name="Ellipse 108" cx="0.367" cy="0.367" r="0.367" transform="translate(1346.469 626.923)" fill="#fff"/>
    <circle id="Ellipse_109" data-name="Ellipse 109" cx="0.601" cy="0.601" r="0.601" transform="translate(1090.276 432.052)" fill="#fff"/>
    <circle id="Ellipse_110" data-name="Ellipse 110" cx="0.633" cy="0.633" r="0.633" transform="translate(1389.949 459.665)" fill="#fff"/>
    <circle id="Ellipse_111" data-name="Ellipse 111" cx="0.908" cy="0.908" r="0.908" transform="translate(1481.786 144.059)" fill="#fff"/>
    <circle id="Ellipse_112" data-name="Ellipse 112" cx="0.701" cy="0.701" r="0.701" transform="translate(1768.736 403.884)" fill="#fff"/>
    <circle id="Ellipse_113" data-name="Ellipse 113" cx="1.48" cy="1.48" r="1.48" transform="translate(1738.046 667.825)" fill="#fff"/>
    <circle id="Ellipse_114" data-name="Ellipse 114" cx="0.649" cy="0.649" r="0.649" transform="translate(1570.768 336.923)" fill="#fff"/>
    <circle id="Ellipse_115" data-name="Ellipse 115" cx="0.816" cy="0.816" r="0.816" transform="translate(1694.037 189.549)" fill="#fff"/>
    <circle id="Ellipse_116" data-name="Ellipse 116" cx="1.178" cy="1.178" r="1.178" transform="translate(1538.456 441.818)" fill="#fff"/>
    <circle id="Ellipse_117" data-name="Ellipse 117" cx="1.234" cy="1.234" r="1.234" transform="translate(1678.297 284.643)" fill="#fff"/>
    <circle id="Ellipse_118" data-name="Ellipse 118" cx="0.44" cy="0.44" r="0.44" transform="translate(1354.348 458.464)" fill="#fff"/>
    <circle id="Ellipse_119" data-name="Ellipse 119" cx="1.194" cy="1.194" r="1.194" transform="translate(1636.998 500.555)" fill="#fff"/>
    <circle id="Ellipse_120" data-name="Ellipse 120" cx="0.548" cy="0.548" r="0.548" transform="translate(1674.392 528.293)" fill="#fff"/>
    <circle id="Ellipse_121" data-name="Ellipse 121" cx="1.292" cy="1.292" r="1.292" transform="translate(1667.818 536.263)" fill="#fff"/>
    <circle id="Ellipse_122" data-name="Ellipse 122" cx="0.421" cy="0.421" r="0.421" transform="translate(774.092 450.959)" fill="#fff"/>
    <circle id="Ellipse_123" data-name="Ellipse 123" cx="0.61" cy="0.61" r="0.61" transform="translate(25.215 509.921)" fill="#fff"/>
    <circle id="Ellipse_124" data-name="Ellipse 124" cx="0.567" cy="0.567" r="0.567" transform="translate(-41.689 343.478)" fill="#fff"/>
    <circle id="Ellipse_125" data-name="Ellipse 125" cx="0.64" cy="0.64" r="0.64" transform="translate(871.432 516.68)" fill="#fff"/>
    <circle id="Ellipse_126" data-name="Ellipse 126" cx="0.703" cy="0.703" r="0.703" transform="translate(718.93 311.818)" fill="#fff"/>
    <circle id="Ellipse_127" data-name="Ellipse 127" cx="0.478" cy="0.478" r="0.478" transform="translate(687.527 220.662)" fill="#fff"/>
    <circle id="Ellipse_128" data-name="Ellipse 128" cx="1.183" cy="1.183" r="1.183" transform="translate(20.309 133.297)" fill="#fff"/>
    <circle id="Ellipse_129" data-name="Ellipse 129" cx="0.791" cy="0.791" r="0.791" transform="translate(741.89 152.984)" fill="#fff"/>
    <circle id="Ellipse_130" data-name="Ellipse 130" cx="1.555" cy="1.555" r="1.555" transform="translate(773.993 887.198)" fill="#fff"/>
    <circle id="Ellipse_131" data-name="Ellipse 131" cx="0.854" cy="0.854" r="0.854" transform="translate(701.132 353.514)" fill="#fff"/>
    <circle id="Ellipse_132" data-name="Ellipse 132" cx="0.493" cy="0.493" r="0.493" transform="translate(756.706 -69.377)" fill="#fff"/>
    <circle id="Ellipse_133" data-name="Ellipse 133" cx="0.902" cy="0.902" r="0.902" transform="translate(707.045 251.147)" fill="#fff"/>
    <circle id="Ellipse_134" data-name="Ellipse 134" cx="1.66" cy="1.66" r="1.66" transform="translate(561.377 233.994)" fill="#fff"/>
    <circle id="Ellipse_135" data-name="Ellipse 135" cx="1.419" cy="1.419" r="1.419" transform="translate(622.318 350.531)" fill="#fff"/>
    <circle id="Ellipse_136" data-name="Ellipse 136" cx="1.2" cy="1.2" r="1.2" transform="translate(5.104 257.172)" fill="#fff"/>
    <circle id="Ellipse_137" data-name="Ellipse 137" cx="0.809" cy="0.809" r="0.809" transform="translate(-38.658 285.942)" fill="#fff"/>
    <circle id="Ellipse_138" data-name="Ellipse 138" cx="1.803" cy="1.803" r="1.803" transform="translate(529.657 272.477)" fill="#fff"/>
    <circle id="Ellipse_139" data-name="Ellipse 139" cx="0.537" cy="0.537" r="0.537" transform="translate(-41.955 323.412)" fill="#fff"/>
    <circle id="Ellipse_140" data-name="Ellipse 140" cx="0.826" cy="0.826" r="0.826" transform="translate(951.055 318.438)" fill="#fff"/>
    <circle id="Ellipse_141" data-name="Ellipse 141" cx="1.1" cy="1.1" r="1.1" transform="translate(1098.545 545.963)" fill="#fff"/>
    <circle id="Ellipse_142" data-name="Ellipse 142" cx="0.785" cy="0.785" r="0.785" transform="translate(731.92 781.581)" fill="#fff"/>
    <circle id="Ellipse_143" data-name="Ellipse 143" cx="0.357" cy="0.357" r="0.357" transform="translate(1113.255 230.322)" fill="#fff"/>
    <circle id="Ellipse_144" data-name="Ellipse 144" cx="1.106" cy="1.106" r="1.106" transform="translate(1348.873 568.201)" fill="#fff"/>
    <circle id="Ellipse_145" data-name="Ellipse 145" cx="0.54" cy="0.54" r="0.54" transform="translate(783.034 578.596)" fill="#fff"/>
    <circle id="Ellipse_146" data-name="Ellipse 146" cx="0.742" cy="0.742" r="0.742" transform="translate(978.457 455.881)" fill="#fff"/>
    <circle id="Ellipse_147" data-name="Ellipse 147" cx="0.851" cy="0.851" r="0.851" transform="translate(1008.82 -117.608)" fill="#fff"/>
    <circle id="Ellipse_148" data-name="Ellipse 148" cx="0.544" cy="0.544" r="0.544" transform="translate(750.007 577.615)" fill="#fff"/>
    <circle id="Ellipse_149" data-name="Ellipse 149" cx="1.008" cy="1.008" r="1.008" transform="translate(903.819 312.273)" fill="#fff"/>
    <circle id="Ellipse_150" data-name="Ellipse 150" cx="0.769" cy="0.769" r="0.769" transform="translate(758.285 852.778)" fill="#fff"/>
    <circle id="Ellipse_151" data-name="Ellipse 151" cx="1.52" cy="1.52" r="1.52" transform="translate(604.36 387.73)" fill="#fff"/>
    <circle id="Ellipse_152" data-name="Ellipse 152" cx="1.008" cy="1.008" r="1.008" transform="translate(685.132 377.591)" fill="#fff"/>
    <circle id="Ellipse_153" data-name="Ellipse 153" cx="0.541" cy="0.541" r="0.541" transform="translate(601.007 328.642)" fill="#fff"/>
    <circle id="Ellipse_154" data-name="Ellipse 154" cx="0.569" cy="0.569" r="0.569" transform="translate(681.775 203.562)" fill="#fff"/>
    <circle id="Ellipse_155" data-name="Ellipse 155" cx="0.498" cy="0.498" r="0.498" transform="translate(1270.464 337.974)" fill="#fff"/>
    <circle id="Ellipse_156" data-name="Ellipse 156" cx="1.099" cy="1.099" r="1.099" transform="translate(1089.036 366.178)" fill="#fff"/>
    <circle id="Ellipse_157" data-name="Ellipse 157" cx="0.837" cy="0.837" r="0.837" transform="translate(1085.944 71.024)" fill="#fff"/>
    <circle id="Ellipse_158" data-name="Ellipse 158" cx="0.69" cy="0.69" r="0.69" transform="translate(1409.369 163.994)" fill="#fff"/>
    <circle id="Ellipse_159" data-name="Ellipse 159" cx="0.325" cy="0.325" r="0.325" transform="translate(886.088 361.827)" fill="#fff"/>
    <circle id="Ellipse_160" data-name="Ellipse 160" cx="1.408" cy="1.408" r="1.408" transform="translate(1038.67 149.694)" fill="#fff"/>
    <circle id="Ellipse_161" data-name="Ellipse 161" cx="0.611" cy="0.611" r="0.611" transform="translate(638.241 809.519)" fill="#fff"/>
    <circle id="Ellipse_162" data-name="Ellipse 162" cx="0.317" cy="0.317" r="0.317" transform="translate(727.416 -160.417)" fill="#fff"/>
    <circle id="Ellipse_163" data-name="Ellipse 163" cx="0.868" cy="0.868" r="0.868" transform="translate(1150.44 326.835)" fill="#fff"/>
    <circle id="Ellipse_164" data-name="Ellipse 164" cx="0.643" cy="0.643" r="0.643" transform="translate(590.18 516.015)" fill="#fff"/>
    <circle id="Ellipse_165" data-name="Ellipse 165" cx="0.597" cy="0.597" r="0.597" transform="translate(699.247 151.777)" fill="#fff"/>
    <circle id="Ellipse_166" data-name="Ellipse 166" cx="1.51" cy="1.51" r="1.51" transform="translate(712.915 276.513)" fill="#fff"/>
    <circle id="Ellipse_167" data-name="Ellipse 167" cx="0.904" cy="0.904" r="0.904" transform="translate(1180.813 656.303)" fill="#fff"/>
    <circle id="Ellipse_168" data-name="Ellipse 168" cx="0.998" cy="0.998" r="0.998" transform="translate(1224.948 189.926)" fill="#fff"/>
    <circle id="Ellipse_169" data-name="Ellipse 169" cx="1.384" cy="1.384" r="1.384" transform="translate(1020.519 311.478)" fill="#fff"/>
    <circle id="Ellipse_170" data-name="Ellipse 170" cx="0.995" cy="0.995" r="0.995" transform="translate(928.302 222.725)" fill="#fff"/>
    <circle id="Ellipse_171" data-name="Ellipse 171" cx="1.425" cy="1.425" r="1.425" transform="translate(1136.596 209.172)" fill="#fff"/>
    <circle id="Ellipse_172" data-name="Ellipse 172" cx="0.466" cy="0.466" r="0.466" transform="translate(800.291 206.652)" fill="#fff"/>
    <circle id="Ellipse_173" data-name="Ellipse 173" cx="1.855" cy="1.855" r="1.855" transform="translate(1197.815 673.053)" fill="#fff"/>
    <circle id="Ellipse_174" data-name="Ellipse 174" cx="0.797" cy="0.797" r="0.797" transform="translate(619.448 215.579)" fill="#fff"/>
    <circle id="Ellipse_175" data-name="Ellipse 175" cx="0.424" cy="0.424" r="0.424" transform="translate(1110.614 80.237)" fill="#fff"/>
    <circle id="Ellipse_176" data-name="Ellipse 176" cx="1.181" cy="1.181" r="1.181" transform="translate(936.298 916.466)" fill="#fff"/>
    <circle id="Ellipse_177" data-name="Ellipse 177" cx="1.505" cy="1.505" r="1.505" transform="translate(609.863 57.362)" fill="#fff"/>
    <circle id="Ellipse_178" data-name="Ellipse 178" cx="2.19" cy="2.19" r="2.19" transform="translate(719.941 642.204)" fill="#fff"/>
    <circle id="Ellipse_179" data-name="Ellipse 179" cx="1.503" cy="1.503" r="1.503" transform="translate(925.667 459.861)" fill="#fff"/>
    <circle id="Ellipse_180" data-name="Ellipse 180" cx="1.415" cy="1.415" r="1.415" transform="translate(1068.482 317.345)" fill="#fff"/>
    <circle id="Ellipse_181" data-name="Ellipse 181" cx="1.424" cy="1.424" r="1.424" transform="translate(911.245 608.543)" fill="#fff"/>
    <circle id="Ellipse_182" data-name="Ellipse 182" cx="0.948" cy="0.948" r="0.948" transform="translate(30.918 242.095)" fill="#fff"/>
    <circle id="Ellipse_183" data-name="Ellipse 183" cx="0.581" cy="0.581" r="0.581" transform="translate(730.114 642.432)" fill="#fff"/>
    <circle id="Ellipse_184" data-name="Ellipse 184" cx="2.089" cy="2.089" r="2.089" transform="translate(-121.465 304.136)" fill="#fff"/>
    <circle id="Ellipse_185" data-name="Ellipse 185" cx="1.731" cy="1.731" r="1.731" transform="translate(-85.273 886.173)" fill="#fff"/>
    <circle id="Ellipse_186" data-name="Ellipse 186" cx="1.014" cy="1.014" r="1.014" transform="translate(-75.853 258.224)" fill="#fff"/>
    <circle id="Ellipse_187" data-name="Ellipse 187" cx="1.204" cy="1.204" r="1.204" transform="translate(25.451 -25.932)" fill="#fff"/>
    <circle id="Ellipse_188" data-name="Ellipse 188" cx="0.859" cy="0.859" r="0.859" transform="translate(1.702 -128.118)" fill="#fff"/>
    <circle id="Ellipse_189" data-name="Ellipse 189" cx="0.476" cy="0.476" r="0.476" transform="translate(-72.414 199.109)" fill="#fff"/>
    <circle id="Ellipse_190" data-name="Ellipse 190" cx="1.343" cy="1.343" r="1.343" transform="translate(-6.202 149.119)" fill="#fff"/>
    <circle id="Ellipse_191" data-name="Ellipse 191" cx="0.602" cy="0.602" r="0.602" transform="translate(-78.664 -66.083)" fill="#fff"/>
    <circle id="Ellipse_192" data-name="Ellipse 192" cx="0.587" cy="0.587" r="0.587" transform="translate(-32.142 312.637)" fill="#fff"/>
    <circle id="Ellipse_193" data-name="Ellipse 193" cx="0.631" cy="0.631" r="0.631" transform="translate(-27.903 -69.307)" fill="#fff"/>
    <circle id="Ellipse_194" data-name="Ellipse 194" cx="1.66" cy="1.66" r="1.66" transform="translate(-28.816 482.437)" fill="#fff"/>
    <circle id="Ellipse_195" data-name="Ellipse 195" cx="1.066" cy="1.066" r="1.066" transform="translate(-9.546 527.985)" fill="#fff"/>
    <circle id="Ellipse_196" data-name="Ellipse 196" cx="0.68" cy="0.68" r="0.68" transform="translate(11.402 838.746)" fill="#fff"/>
    <circle id="Ellipse_197" data-name="Ellipse 197" cx="0.718" cy="0.718" r="0.718" transform="translate(547.099 196.237)" fill="#fff"/>
    <circle id="Ellipse_198" data-name="Ellipse 198" cx="1.135" cy="1.135" r="1.135" transform="translate(551.474 676.89)" fill="#fff"/>
    <circle id="Ellipse_199" data-name="Ellipse 199" cx="0.525" cy="0.525" r="0.525" transform="translate(-40.403 417.343)" fill="#fff"/>
    <circle id="Ellipse_200" data-name="Ellipse 200" cx="1.032" cy="1.032" r="1.032" transform="translate(17.979 295.54)" fill="#fff"/>
    <circle id="Ellipse_201" data-name="Ellipse 201" cx="0.725" cy="0.725" r="0.725" transform="translate(699.183 571.91)" fill="#fff"/>
    <circle id="Ellipse_202" data-name="Ellipse 202" cx="0.833" cy="0.833" r="0.833" transform="translate(818.092 464.641)" fill="#fff"/>
    <circle id="Ellipse_203" data-name="Ellipse 203" cx="0.244" cy="0.244" r="0.244" transform="translate(485.453 368.001)" fill="#fff"/>
    <circle id="Ellipse_204" data-name="Ellipse 204" cx="1.775" cy="1.775" r="1.775" transform="translate(-1.295 591.476)" fill="#fff"/>
    <circle id="Ellipse_205" data-name="Ellipse 205" cx="0.932" cy="0.932" r="0.932" transform="translate(-134.879 373.189)" fill="#fff"/>
    <circle id="Ellipse_206" data-name="Ellipse 206" cx="0.842" cy="0.842" r="0.842" transform="translate(-61.426 304.284)" fill="#fff"/>
    <circle id="Ellipse_207" data-name="Ellipse 207" cx="1.547" cy="1.547" r="1.547" transform="translate(815.136 464.061)" fill="#fff"/>
    <circle id="Ellipse_208" data-name="Ellipse 208" cx="1.091" cy="1.091" r="1.091" transform="translate(-68.29 581.051)" fill="#fff"/>
    <circle id="Ellipse_209" data-name="Ellipse 209" cx="1.038" cy="1.038" r="1.038" transform="translate(545.847 852.643)" fill="#fff"/>
    <circle id="Ellipse_210" data-name="Ellipse 210" cx="1.635" cy="1.635" r="1.635" transform="translate(842.701 370.52)" fill="#fff"/>
    <circle id="Ellipse_211" data-name="Ellipse 211" cx="0.731" cy="0.731" r="0.731" transform="translate(-70.454 272.574)" fill="#fff"/>
    <circle id="Ellipse_212" data-name="Ellipse 212" cx="0.489" cy="0.489" r="0.489" transform="translate(596.537 533.955)" fill="#fff"/>
    <circle id="Ellipse_213" data-name="Ellipse 213" cx="0.62" cy="0.62" r="0.62" transform="translate(509.576 150.606)" fill="#fff"/>
    <circle id="Ellipse_214" data-name="Ellipse 214" cx="0.494" cy="0.494" r="0.494" transform="translate(839.746 783.113)" fill="#fff"/>
    <circle id="Ellipse_215" data-name="Ellipse 215" cx="1.793" cy="1.793" r="1.793" transform="translate(-6.923 510.426)" fill="#fff"/>
    <circle id="Ellipse_216" data-name="Ellipse 216" cx="0.802" cy="0.802" r="0.802" transform="translate(712.493 203.283)" fill="#fff"/>
    <circle id="Ellipse_217" data-name="Ellipse 217" cx="0.322" cy="0.322" r="0.322" transform="translate(-84.138 64.012)" fill="#fff"/>
    <circle id="Ellipse_218" data-name="Ellipse 218" cx="1.291" cy="1.291" r="1.291" transform="translate(7.918 476.21)" fill="#fff"/>
    <circle id="Ellipse_219" data-name="Ellipse 219" cx="1.591" cy="1.591" r="1.591" transform="translate(-83.32 448.488)" fill="#fff"/>
    <circle id="Ellipse_220" data-name="Ellipse 220" cx="2.183" cy="2.183" r="2.183" transform="translate(19.021 471.892)" fill="#fff"/>
    <circle id="Ellipse_221" data-name="Ellipse 221" cx="2.031" cy="2.031" r="2.031" transform="translate(888.843 321.662)" fill="#fff"/>
    <circle id="Ellipse_222" data-name="Ellipse 222" cx="0.449" cy="0.449" r="0.449" transform="translate(27.558 229.783)" fill="#fff"/>
    <circle id="Ellipse_223" data-name="Ellipse 223" cx="0.453" cy="0.453" r="0.453" transform="translate(-14.334 588.896)" fill="#fff"/>
    <circle id="Ellipse_224" data-name="Ellipse 224" cx="0.772" cy="0.772" r="0.772" transform="translate(645.837 338.139)" fill="#fff"/>
    <circle id="Ellipse_225" data-name="Ellipse 225" cx="0.643" cy="0.643" r="0.643" transform="translate(-3.516 164.407)" fill="#fff"/>
    <circle id="Ellipse_226" data-name="Ellipse 226" cx="0.711" cy="0.711" r="0.711" transform="translate(679.274 257.195)" fill="#fff"/>
    <circle id="Ellipse_227" data-name="Ellipse 227" cx="0.765" cy="0.765" r="0.765" transform="translate(620.598 370.495)" fill="#fff"/>
    <circle id="Ellipse_228" data-name="Ellipse 228" cx="1.162" cy="1.162" r="1.162" transform="translate(34.827 803.756)" fill="#fff"/>
    <circle id="Ellipse_229" data-name="Ellipse 229" cx="1.164" cy="1.164" r="1.164" transform="translate(751.361 410.368)" fill="#fff"/>
    <circle id="Ellipse_230" data-name="Ellipse 230" cx="0.993" cy="0.993" r="0.993" transform="translate(825.161 248.081)" fill="#fff"/>
    <circle id="Ellipse_231" data-name="Ellipse 231" cx="0.96" cy="0.96" r="0.96" transform="translate(752.326 406.339)" fill="#fff"/>
    <circle id="Ellipse_232" data-name="Ellipse 232" cx="0.556" cy="0.556" r="0.556" transform="translate(491.39 356.216)" fill="#fff"/>
    <circle id="Ellipse_233" data-name="Ellipse 233" cx="0.865" cy="0.865" r="0.865" transform="translate(686.639 139.879)" fill="#fff"/>
    <circle id="Ellipse_234" data-name="Ellipse 234" cx="0.469" cy="0.469" r="0.469" transform="translate(664.113 207.523)" fill="#fff"/>
    <circle id="Ellipse_235" data-name="Ellipse 235" cx="0.339" cy="0.339" r="0.339" transform="translate(-27.314 798.251)" fill="#fff"/>
    <circle id="Ellipse_236" data-name="Ellipse 236" cx="1.002" cy="1.002" r="1.002" transform="translate(2.549 800.343)" fill="#fff"/>
    <circle id="Ellipse_237" data-name="Ellipse 237" cx="1.016" cy="1.016" r="1.016" transform="translate(757.213 226.993)" fill="#fff"/>
    <circle id="Ellipse_238" data-name="Ellipse 238" cx="2.257" cy="2.257" r="2.257" transform="translate(1127.105 612.24)" fill="#fff"/>
    <circle id="Ellipse_239" data-name="Ellipse 239" cx="0.907" cy="0.907" r="0.907" transform="translate(484.416 700.135)" fill="#fff"/>
    <circle id="Ellipse_240" data-name="Ellipse 240" cx="0.435" cy="0.435" r="0.435" transform="translate(584.066 449.577)" fill="#fff"/>
    <circle id="Ellipse_241" data-name="Ellipse 241" cx="0.94" cy="0.94" r="0.94" transform="translate(-46.009 -44.503)" fill="#fff"/>
    <circle id="Ellipse_242" data-name="Ellipse 242" cx="0.265" cy="0.265" r="0.265" transform="translate(1986.027 215.73)" fill="#fff"/>
    <circle id="Ellipse_243" data-name="Ellipse 243" cx="0.652" cy="0.652" r="0.652" transform="translate(1943.714 522.589)" fill="#fff"/>
    <circle id="Ellipse_244" data-name="Ellipse 244" cx="0.56" cy="0.56" r="0.56" transform="translate(1893.033 -27.318)" fill="#fff"/>
    <circle id="Ellipse_245" data-name="Ellipse 245" cx="0.282" cy="0.282" r="0.282" transform="translate(2141.299 -17.592)" fill="#fff"/>
    <circle id="Ellipse_246" data-name="Ellipse 246" cx="2.052" cy="2.052" r="2.052" transform="translate(1767.604 537.385)" fill="#fff"/>
    <circle id="Ellipse_247" data-name="Ellipse 247" cx="2.028" cy="2.028" r="2.028" transform="translate(1918.527 440.949)" fill="#fff"/>
    <circle id="Ellipse_248" data-name="Ellipse 248" cx="0.29" cy="0.29" r="0.29" transform="translate(1698.375 243.239)" fill="#fff"/>
    <circle id="Ellipse_249" data-name="Ellipse 249" cx="0.889" cy="0.889" r="0.889" transform="translate(1824.766 338.647)" fill="#fff"/>
    <circle id="Ellipse_250" data-name="Ellipse 250" cx="0.661" cy="0.661" r="0.661" transform="translate(1857.015 697.08)" fill="#fff"/>
    <circle id="Ellipse_251" data-name="Ellipse 251" cx="0.339" cy="0.339" r="0.339" transform="translate(1512.122 417.669)" fill="#fff"/>
    <circle id="Ellipse_252" data-name="Ellipse 252" cx="1.692" cy="1.692" r="1.692" transform="translate(1770.953 -69.511)" fill="#fff"/>
    <circle id="Ellipse_253" data-name="Ellipse 253" cx="2.149" cy="2.149" r="2.149" transform="translate(1856.235 144.907)" fill="#fff"/>
    <circle id="Ellipse_254" data-name="Ellipse 254" cx="1.195" cy="1.195" r="1.195" transform="translate(1962.574 423.643)" fill="#fff"/>
    <circle id="Ellipse_255" data-name="Ellipse 255" cx="1.194" cy="1.194" r="1.194" transform="translate(1600.874 599.849)" fill="#fff"/>
    <circle id="Ellipse_256" data-name="Ellipse 256" cx="0.461" cy="0.461" r="0.461" transform="translate(1806.92 766.686)" fill="#fff"/>
    <circle id="Ellipse_257" data-name="Ellipse 257" cx="0.914" cy="0.914" r="0.914" transform="translate(1965.933 82.06)" fill="#fff"/>
    <circle id="Ellipse_258" data-name="Ellipse 258" cx="0.294" cy="0.294" r="0.294" transform="translate(1821.635 382.08)" fill="#fff"/>
    <circle id="Ellipse_259" data-name="Ellipse 259" cx="1.317" cy="1.317" r="1.317" transform="translate(1387.142 335.634)" fill="#fff"/>
    <circle id="Ellipse_260" data-name="Ellipse 260" cx="0.989" cy="0.989" r="0.989" transform="translate(1707.283 417.977)" fill="#fff"/>
    <circle id="Ellipse_261" data-name="Ellipse 261" cx="1.632" cy="1.632" r="1.632" transform="translate(2019.483 -9.94)" fill="#fff"/>
    <circle id="Ellipse_262" data-name="Ellipse 262" cx="0.469" cy="0.469" r="0.469" transform="translate(1986.794 63.027)" fill="#fff"/>
    <circle id="Ellipse_263" data-name="Ellipse 263" cx="0.795" cy="0.795" r="0.795" transform="translate(2123.065 319.008)" fill="#fff"/>
    <circle id="Ellipse_264" data-name="Ellipse 264" cx="1.689" cy="1.689" r="1.689" transform="translate(2790.896 317.937)" fill="#fff"/>
    <circle id="Ellipse_265" data-name="Ellipse 265" cx="0.327" cy="0.327" r="0.327" transform="translate(2796.178 -26.906)" fill="#fff"/>
    <circle id="Ellipse_266" data-name="Ellipse 266" cx="1.031" cy="1.031" r="1.031" transform="translate(2150.895 205.735)" fill="#fff"/>
    <circle id="Ellipse_267" data-name="Ellipse 267" cx="0.725" cy="0.725" r="0.725" transform="translate(2049.979 274.265)" fill="#fff"/>
    <circle id="Ellipse_268" data-name="Ellipse 268" cx="0.525" cy="0.525" r="0.525" transform="translate(2001.019 702.31)" fill="#fff"/>
    <circle id="Ellipse_269" data-name="Ellipse 269" cx="1.274" cy="1.274" r="1.274" transform="translate(2166.072 340.856)" fill="#fff"/>
    <circle id="Ellipse_270" data-name="Ellipse 270" cx="0.454" cy="0.454" r="0.454" transform="translate(2748.089 354.236)" fill="#fff"/>
    <circle id="Ellipse_271" data-name="Ellipse 271" cx="1.902" cy="1.902" r="1.902" transform="translate(2179.018 410.168)" fill="#fff"/>
    <circle id="Ellipse_272" data-name="Ellipse 272" cx="0.688" cy="0.688" r="0.688" transform="translate(2763.769 261.183)" fill="#fff"/>
    <circle id="Ellipse_273" data-name="Ellipse 273" cx="1.785" cy="1.785" r="1.785" transform="translate(1836.094 785.528)" fill="#fff"/>
    <circle id="Ellipse_274" data-name="Ellipse 274" cx="0.714" cy="0.714" r="0.714" transform="translate(1819.382 352.122)" fill="#fff"/>
    <circle id="Ellipse_275" data-name="Ellipse 275" cx="1.052" cy="1.052" r="1.052" transform="translate(1954.38 466.537)" fill="#fff"/>
    <circle id="Ellipse_276" data-name="Ellipse 276" cx="0.711" cy="0.711" r="0.711" transform="translate(2032.292 106.338)" fill="#fff"/>
    <circle id="Ellipse_277" data-name="Ellipse 277" cx="0.789" cy="0.789" r="0.789" transform="translate(1900.923 198.909)" fill="#fff"/>
    <circle id="Ellipse_278" data-name="Ellipse 278" cx="0.274" cy="0.274" r="0.274" transform="translate(1701.624 181.573)" fill="#fff"/>
    <circle id="Ellipse_279" data-name="Ellipse 279" cx="0.778" cy="0.778" r="0.778" transform="translate(2764.979 389.091)" fill="#fff"/>
    <circle id="Ellipse_280" data-name="Ellipse 280" cx="1.65" cy="1.65" r="1.65" transform="translate(2155.734 828.628)" fill="#fff"/>
    <circle id="Ellipse_281" data-name="Ellipse 281" cx="1.351" cy="1.351" r="1.351" transform="translate(2249.677 575.054)" fill="#fff"/>
    <circle id="Ellipse_282" data-name="Ellipse 282" cx="0.534" cy="0.534" r="0.534" transform="translate(2031.854 484.957)" fill="#fff"/>
    <circle id="Ellipse_283" data-name="Ellipse 283" cx="1.101" cy="1.101" r="1.101" transform="translate(2773.083 488.714)" fill="#fff"/>
    <circle id="Ellipse_284" data-name="Ellipse 284" cx="0.487" cy="0.487" r="0.487" transform="translate(2772.362 702.364)" fill="#fff"/>
    <circle id="Ellipse_285" data-name="Ellipse 285" cx="1.901" cy="1.901" r="1.901" transform="translate(2208.906 207.044)" fill="#fff"/>
    <circle id="Ellipse_286" data-name="Ellipse 286" cx="0.845" cy="0.845" r="0.845" transform="translate(2796.027 228.882)" fill="#fff"/>
    <circle id="Ellipse_287" data-name="Ellipse 287" cx="0.238" cy="0.238" r="0.238" transform="translate(2153.833 -102.902)" fill="#fff"/>
    <circle id="Ellipse_288" data-name="Ellipse 288" cx="0.499" cy="0.499" r="0.499" transform="translate(2013.464 360.113)" fill="#fff"/>
    <circle id="Ellipse_289" data-name="Ellipse 289" cx="0.393" cy="0.393" r="0.393" transform="translate(2750.999 252.475)" fill="#fff"/>
    <circle id="Ellipse_290" data-name="Ellipse 290" cx="2.001" cy="2.001" r="2.001" transform="translate(1964.391 -27.074)" fill="#fff"/>
    <circle id="Ellipse_291" data-name="Ellipse 291" cx="1.273" cy="1.273" r="1.273" transform="translate(2189.611 193.36)" fill="#fff"/>
    <circle id="Ellipse_292" data-name="Ellipse 292" cx="0.98" cy="0.98" r="0.98" transform="translate(2312.05 614.4)" fill="#fff"/>
    <circle id="Ellipse_293" data-name="Ellipse 293" cx="0.777" cy="0.777" r="0.777" transform="translate(2770.946 298.37)" fill="#fff"/>
    <circle id="Ellipse_294" data-name="Ellipse 294" cx="2.041" cy="2.041" r="2.041" transform="translate(2783.637 507.255)" fill="#fff"/>
    <circle id="Ellipse_295" data-name="Ellipse 295" cx="0.697" cy="0.697" r="0.697" transform="translate(2253.971 414.372)" fill="#fff"/>
    <circle id="Ellipse_296" data-name="Ellipse 296" cx="1.698" cy="1.698" r="1.698" transform="translate(2276.366 667.004)" fill="#fff"/>
    <circle id="Ellipse_297" data-name="Ellipse 297" cx="0.705" cy="0.705" r="0.705" transform="translate(1941.001 -75.241)" fill="#fff"/>
    <circle id="Ellipse_298" data-name="Ellipse 298" cx="0.715" cy="0.715" r="0.715" transform="translate(2776.779 469.071)" fill="#fff"/>
    <circle id="Ellipse_299" data-name="Ellipse 299" cx="1.192" cy="1.192" r="1.192" transform="translate(2147.773 376.015)" fill="#fff"/>
    <circle id="Ellipse_300" data-name="Ellipse 300" cx="1.137" cy="1.137" r="1.137" transform="translate(2802.1 327.48)" fill="#fff"/>
    <circle id="Ellipse_301" data-name="Ellipse 301" cx="0.852" cy="0.852" r="0.852" transform="translate(1981.266 656.952)" fill="#fff"/>
    <circle id="Ellipse_302" data-name="Ellipse 302" cx="0.796" cy="0.796" r="0.796" transform="translate(2206.613 411.556)" fill="#fff"/>
    <circle id="Ellipse_303" data-name="Ellipse 303" cx="1.394" cy="1.394" r="1.394" transform="translate(1964.823 88.436)" fill="#fff"/>
    <circle id="Ellipse_304" data-name="Ellipse 304" cx="0.834" cy="0.834" r="0.834" transform="translate(2844.476 311.072)" fill="#fff"/>
    <circle id="Ellipse_305" data-name="Ellipse 305" cx="0.564" cy="0.564" r="0.564" transform="translate(2071.835 365.497)" fill="#fff"/>
    <circle id="Ellipse_306" data-name="Ellipse 306" cx="0.914" cy="0.914" r="0.914" transform="translate(2180.988 147.615)" fill="#fff"/>
    <circle id="Ellipse_307" data-name="Ellipse 307" cx="1.421" cy="1.421" r="1.421" transform="translate(2808.266 430.794)" fill="#fff"/>
    <circle id="Ellipse_308" data-name="Ellipse 308" cx="0.403" cy="0.403" r="0.403" transform="translate(2133.302 549.285)" fill="#fff"/>
    <circle id="Ellipse_309" data-name="Ellipse 309" cx="0.386" cy="0.386" r="0.386" transform="translate(2824.308 268.779)" fill="#fff"/>
    <circle id="Ellipse_310" data-name="Ellipse 310" cx="0.702" cy="0.702" r="0.702" transform="translate(2795.732 302.844)" fill="#fff"/>
    <circle id="Ellipse_311" data-name="Ellipse 311" cx="0.69" cy="0.69" r="0.69" transform="translate(2859.809 680.102)" fill="#fff"/>
    <circle id="Ellipse_312" data-name="Ellipse 312" cx="0.605" cy="0.605" r="0.605" transform="translate(1946.025 518.905)" fill="#fff"/>
    <circle id="Ellipse_313" data-name="Ellipse 313" cx="1.562" cy="1.562" r="1.562" transform="translate(2090.78 429.805)" fill="#fff"/>
    <circle id="Ellipse_314" data-name="Ellipse 314" cx="0.86" cy="0.86" r="0.86" transform="translate(2760.988 320.348)" fill="#fff"/>
    <circle id="Ellipse_315" data-name="Ellipse 315" cx="0.334" cy="0.334" r="0.334" transform="translate(2059.765 828.275)" fill="#fff"/>
    <circle id="Ellipse_316" data-name="Ellipse 316" cx="0.441" cy="0.441" r="0.441" transform="translate(1996.244 556.461)" fill="#fff"/>
    <circle id="Ellipse_317" data-name="Ellipse 317" cx="0.936" cy="0.936" r="0.936" transform="translate(2159.135 502.615)" fill="#fff"/>
    <circle id="Ellipse_318" data-name="Ellipse 318" cx="0.742" cy="0.742" r="0.742" transform="translate(1940.261 351.96)" fill="#fff"/>
    <circle id="Ellipse_319" data-name="Ellipse 319" cx="0.515" cy="0.515" r="0.515" transform="translate(2782.652 443.23)" fill="#fff"/>
    <circle id="Ellipse_320" data-name="Ellipse 320" cx="0.739" cy="0.739" r="0.739" transform="translate(2848.169 86.975)" fill="#fff"/>
    <circle id="Ellipse_321" data-name="Ellipse 321" cx="1.372" cy="1.372" r="1.372" transform="translate(2175.478 397.709)" fill="#fff"/>
    <circle id="Ellipse_322" data-name="Ellipse 322" cx="1.149" cy="1.149" r="1.149" transform="translate(2847.265 212.164)" fill="#fff"/>
    <circle id="Ellipse_323" data-name="Ellipse 323" cx="0.288" cy="0.288" r="0.288" transform="translate(1882.319 214.066)" fill="#fff"/>
    <circle id="Ellipse_324" data-name="Ellipse 324" cx="0.788" cy="0.788" r="0.788" transform="translate(2240.04 690.403)" fill="#fff"/>
    <circle id="Ellipse_325" data-name="Ellipse 325" cx="0.656" cy="0.656" r="0.656" transform="translate(2855.212 226.906)" fill="#fff"/>
    <circle id="Ellipse_326" data-name="Ellipse 326" cx="0.846" cy="0.846" r="0.846" transform="translate(2275.496 827.945)" fill="#fff"/>
    <circle id="Ellipse_327" data-name="Ellipse 327" cx="0.855" cy="0.855" r="0.855" transform="translate(2765.292 787.093)" fill="#fff"/>
    <circle id="Ellipse_328" data-name="Ellipse 328" cx="0.464" cy="0.464" r="0.464" transform="translate(2248.358 126.401)" fill="#fff"/>
    <circle id="Ellipse_329" data-name="Ellipse 329" cx="0.418" cy="0.418" r="0.418" transform="translate(2755.672 702.354)" fill="#fff"/>
    <circle id="Ellipse_330" data-name="Ellipse 330" cx="0.642" cy="0.642" r="0.642" transform="translate(2837.77 848.391)" fill="#fff"/>
    <circle id="Ellipse_331" data-name="Ellipse 331" cx="0.284" cy="0.284" r="0.284" transform="translate(2916.712 267.385)" fill="#fff"/>
    <circle id="Ellipse_332" data-name="Ellipse 332" cx="0.294" cy="0.294" r="0.294" transform="translate(2273.612 -4.238)" fill="#fff"/>
    <circle id="Ellipse_333" data-name="Ellipse 333" cx="1.792" cy="1.792" r="1.792" transform="translate(2183.555 148.249)" fill="#fff"/>
    <circle id="Ellipse_334" data-name="Ellipse 334" cx="1.057" cy="1.057" r="1.057" transform="translate(2778.755 164.398)" fill="#fff"/>
    <circle id="Ellipse_335" data-name="Ellipse 335" cx="1.112" cy="1.112" r="1.112" transform="translate(2833.074 666.017)" fill="#fff"/>
    <circle id="Ellipse_336" data-name="Ellipse 336" cx="0.516" cy="0.516" r="0.516" transform="translate(2884.413 428.567)" fill="#fff"/>
    <circle id="Ellipse_337" data-name="Ellipse 337" cx="0.349" cy="0.349" r="0.349" transform="translate(2767.55 338.413)" fill="#fff"/>
    <circle id="Ellipse_338" data-name="Ellipse 338" cx="0.602" cy="0.602" r="0.602" transform="translate(2293.149 609.461)" fill="#fff"/>
    <circle id="Ellipse_339" data-name="Ellipse 339" cx="0.878" cy="0.878" r="0.878" transform="translate(2178.549 378.051)" fill="#fff"/>
    <circle id="Ellipse_340" data-name="Ellipse 340" cx="0.733" cy="0.733" r="0.733" transform="translate(2220.158 286.006)" fill="#fff"/>
    <circle id="Ellipse_341" data-name="Ellipse 341" cx="0.442" cy="0.442" r="0.442" transform="translate(2153.625 291.112)" fill="#fff"/>
    <circle id="Ellipse_342" data-name="Ellipse 342" cx="0.815" cy="0.815" r="0.815" transform="translate(2822.318 320.833)" fill="#fff"/>
    <circle id="Ellipse_343" data-name="Ellipse 343" cx="0.344" cy="0.344" r="0.344" transform="translate(2773.448 867.624)" fill="#fff"/>
    <circle id="Ellipse_344" data-name="Ellipse 344" cx="0.306" cy="0.306" r="0.306" transform="translate(2864.295 290.882)" fill="#fff"/>
    <circle id="Ellipse_345" data-name="Ellipse 345" cx="1.821" cy="1.821" r="1.821" transform="translate(2915.457 617.644)" fill="#fff"/>
    <circle id="Ellipse_346" data-name="Ellipse 346" cx="1.43" cy="1.43" r="1.43" transform="translate(2762.778 380.053)" fill="#fff"/>
    <circle id="Ellipse_347" data-name="Ellipse 347" cx="0.815" cy="0.815" r="0.815" transform="translate(2773.671 78.47)" fill="#fff"/>
    <circle id="Ellipse_348" data-name="Ellipse 348" cx="0.784" cy="0.784" r="0.784" transform="translate(2912.206 281.33)" fill="#fff"/>
    <circle id="Ellipse_349" data-name="Ellipse 349" cx="0.557" cy="0.557" r="0.557" transform="translate(2071.451 295.54)" fill="#fff"/>
    <circle id="Ellipse_350" data-name="Ellipse 350" cx="2.352" cy="2.352" r="2.352" transform="translate(2821.994 390.275)" fill="#fff"/>
    <circle id="Ellipse_351" data-name="Ellipse 351" cx="0.765" cy="0.765" r="0.765" transform="translate(2895.804 649.195)" fill="#fff"/>
    <circle id="Ellipse_352" data-name="Ellipse 352" cx="0.611" cy="0.611" r="0.611" transform="translate(2757.711 562.162)" fill="#fff"/>
    <circle id="Ellipse_353" data-name="Ellipse 353" cx="1.207" cy="1.207" r="1.207" transform="translate(2899.73 366.453)" fill="#fff"/>
    <circle id="Ellipse_354" data-name="Ellipse 354" cx="0.635" cy="0.635" r="0.635" transform="translate(2796.287 526.052)" fill="#fff"/>
    <circle id="Ellipse_355" data-name="Ellipse 355" cx="0.953" cy="0.953" r="0.953" transform="translate(2846.316 376.038)" fill="#fff"/>
    <circle id="Ellipse_356" data-name="Ellipse 356" cx="2.072" cy="2.072" r="2.072" transform="translate(2913.125 199.535)" fill="#fff"/>
    <circle id="Ellipse_357" data-name="Ellipse 357" cx="0.855" cy="0.855" r="0.855" transform="translate(2793.429 772.862)" fill="#fff"/>
    <circle id="Ellipse_358" data-name="Ellipse 358" cx="0.325" cy="0.325" r="0.325" transform="translate(2769.68 409.009)" fill="#fff"/>
    <circle id="Ellipse_359" data-name="Ellipse 359" cx="1.276" cy="1.276" r="1.276" transform="translate(2768.361 367.604)" fill="#fff"/>
    <circle id="Ellipse_360" data-name="Ellipse 360" cx="0.421" cy="0.421" r="0.421" transform="translate(2855.819 435.772)" fill="#fff"/>
    <circle id="Ellipse_361" data-name="Ellipse 361" cx="1.147" cy="1.147" r="1.147" transform="translate(2882.683 103.013)" fill="#fff"/>
  </g>
</svg>
